<svg xmlns="http://www.w3.org/2000/svg" width="64" height="64" viewBox="0 0 64 64" fill="none">
  <defs>
    <linearGradient id="bg" x1="10" y1="6" x2="54" y2="58" gradientUnits="userSpaceOnUse">
      <stop stop-color="#2563EB" />
      <stop offset="1" stop-color="#4F46E5" />
    </linearGradient>
    <linearGradient id="accent" x1="24" y1="18" x2="45" y2="44" gradientUnits="userSpaceOnUse">
      <stop stop-color="#93C5FD" />
      <stop offset="1" stop-color="#C4B5FD" />
    </linearGradient>
    <filter id="shadow" x="4" y="4" width="56" height="56" filterUnits="userSpaceOnUse" color-interpolation-filters="sRGB">
      <feFlood flood-opacity="0" result="BackgroundImageFix" />
      <feColorMatrix in="SourceAlpha" values="0 0 0 0 0 0 0 0 0 0 0 0 0 0 0 0 0 0 127 0" result="hardAlpha" />
      <feOffset dy="4" />
      <feGaussianBlur stdDeviation="4" />
      <feColorMatrix values="0 0 0 0 0.145098 0 0 0 0 0.231373 0 0 0 0 0.501961 0 0 0 0.22 0" />
      <feBlend in2="BackgroundImageFix" result="effect1_dropShadow_0_1" />
      <feBlend in="SourceGraphic" in2="effect1_dropShadow_0_1" result="shape" />
    </filter>
  </defs>

  <g filter="url(#shadow)">
    <rect x="8" y="8" width="48" height="48" rx="16" fill="url(#bg)" />
    <path d="M23 18.5C23 17.1193 24.1193 16 25.5 16H35.5858C36.2488 16 36.8847 16.2634 37.3536 16.7322L42.2678 21.6464C42.7366 22.1153 43 22.7512 43 23.4142V42.5C43 43.8807 41.8807 45 40.5 45H25.5C24.1193 45 23 43.8807 23 42.5V18.5Z" fill="white" />
    <path d="M35 16.25V21.5C35 22.8807 36.1193 24 37.5 24H42.75" fill="#DBEAFE" />
    <path d="M35 16.25V21.5C35 22.8807 36.1193 24 37.5 24H42.75" stroke="#BFDBFE" stroke-width="1.5" stroke-linejoin="round" />
    <path d="M28 29.5H38" stroke="#94A3B8" stroke-width="2.5" stroke-linecap="round" />
    <path d="M28 34.5H34" stroke="#94A3B8" stroke-width="2.5" stroke-linecap="round" />
    <circle cx="42" cy="41" r="8" fill="url(#accent)" />
    <path d="M38.75 41.1L41 43.35L45.5 38.85" stroke="#1E1B4B" stroke-width="2.5" stroke-linecap="round" stroke-linejoin="round" />
  </g>
</svg>
