<svg width="1600" height="900" viewBox="0 0 1600 900" fill="none" xmlns="http://www.w3.org/2000/svg">
  <rect width="1600" height="900" rx="48" fill="#FAF5FF"/>
  <rect x="72" y="72" width="1456" height="756" rx="40" fill="#FFFFFF"/>
  <rect x="148" y="150" width="220" height="28" rx="14" fill="#A855F7" fill-opacity="0.18"/>
  <rect x="148" y="206" width="474" height="96" rx="24" fill="#111827"/>
  <g>
    <rect x="148" y="392" width="390" height="286" rx="30" fill="#F5D0FE"/>
    <rect x="606" y="392" width="390" height="286" rx="30" fill="#E9D5FF"/>
    <rect x="1064" y="392" width="390" height="286" rx="30" fill="#DDD6FE"/>
  </g>
  <g fill="#FFFFFF">
    <rect x="188" y="430" width="310" height="126" rx="24"/>
    <rect x="646" y="430" width="310" height="126" rx="24"/>
    <rect x="1104" y="430" width="310" height="126" rx="24"/>
  </g>
  <g fill="#6B7280">
    <rect x="188" y="586" width="210" height="18" rx="9"/>
    <rect x="188" y="620" width="248" height="18" rx="9"/>
    <rect x="646" y="586" width="210" height="18" rx="9"/>
    <rect x="646" y="620" width="248" height="18" rx="9"/>
    <rect x="1104" y="586" width="210" height="18" rx="9"/>
    <rect x="1104" y="620" width="248" height="18" rx="9"/>
  </g>
  <text x="148" y="782" fill="#581C87" font-family="Arial, sans-serif" font-size="52" font-weight="700">Blog com grid de artigos</text>
</svg>
