<svg width="1600" height="900" viewBox="0 0 1600 900" fill="none" xmlns="http://www.w3.org/2000/svg">
  <rect width="1600" height="900" rx="48" fill="#0F172A"/>
  <rect x="56" y="56" width="1488" height="788" rx="40" fill="url(#heroBg)"/>
  <circle cx="1320" cy="190" r="168" fill="#38BDF8" fill-opacity="0.18"/>
  <circle cx="260" cy="742" r="212" fill="#22D3EE" fill-opacity="0.14"/>
  <rect x="136" y="138" width="250" height="26" rx="13" fill="#E2E8F0" fill-opacity="0.92"/>
  <rect x="136" y="194" width="630" height="124" rx="28" fill="#F8FAFC"/>
  <rect x="136" y="350" width="548" height="28" rx="14" fill="#BFDBFE"/>
  <rect x="136" y="396" width="474" height="28" rx="14" fill="#BFDBFE"/>
  <rect x="136" y="474" width="214" height="64" rx="32" fill="#F97316"/>
  <rect x="372" y="474" width="186" height="64" rx="32" fill="#FFFFFF" fill-opacity="0.18" stroke="#E2E8F0" stroke-width="2"/>
  <rect x="904" y="136" width="502" height="630" rx="36" fill="#FFFFFF" fill-opacity="0.12" stroke="#FFFFFF" stroke-opacity="0.14" stroke-width="2"/>
  <rect x="950" y="186" width="410" height="40" rx="20" fill="#FFFFFF" fill-opacity="0.82"/>
  <rect x="950" y="256" width="410" height="220" rx="28" fill="#0EA5E9"/>
  <rect x="978" y="286" width="180" height="20" rx="10" fill="#E0F2FE"/>
  <rect x="978" y="320" width="244" height="16" rx="8" fill="#BAE6FD"/>
  <rect x="950" y="520" width="410" height="28" rx="14" fill="#E2E8F0"/>
  <rect x="950" y="568" width="344" height="28" rx="14" fill="#E2E8F0"/>
  <rect x="950" y="634" width="162" height="50" rx="25" fill="#22C55E"/>
  <text x="136" y="120" fill="#E2E8F0" font-family="Arial, sans-serif" font-size="34" font-weight="700">Preview em imagem</text>
  <text x="136" y="656" fill="#F8FAFC" font-family="Arial, sans-serif" font-size="52" font-weight="700">Capa com hero e CTA forte</text>
  <defs>
    <linearGradient id="heroBg" x1="56" y1="56" x2="1544" y2="844" gradientUnits="userSpaceOnUse">
      <stop stop-color="#1D4ED8"/>
      <stop offset="0.55" stop-color="#0F766E"/>
      <stop offset="1" stop-color="#111827"/>
    </linearGradient>
  </defs>
</svg>
