<svg width="1600" height="900" viewBox="0 0 1600 900" fill="none" xmlns="http://www.w3.org/2000/svg">
  <rect width="1600" height="900" rx="48" fill="#0F172A"/>
  <rect x="56" y="56" width="1488" height="788" rx="40" fill="url(#bg)"/>
  <circle cx="1330" cy="196" r="170" fill="#38BDF8" fill-opacity="0.18"/>
  <circle cx="278" cy="744" r="208" fill="#A78BFA" fill-opacity="0.16"/>
  <rect x="144" y="142" width="232" height="26" rx="13" fill="#F8FAFC" fill-opacity="0.9"/>
  <rect x="144" y="204" width="614" height="112" rx="24" fill="#F8FAFC"/>
  <rect x="144" y="346" width="532" height="30" rx="15" fill="#CBD5E1"/>
  <rect x="144" y="394" width="468" height="30" rx="15" fill="#CBD5E1"/>
  <rect x="144" y="468" width="206" height="62" rx="31" fill="#F97316"/>
  <rect x="372" y="468" width="180" height="62" rx="31" fill="#FFFFFF" fill-opacity="0.18" stroke="#E2E8F0"/>
  <rect x="930" y="146" width="470" height="610" rx="36" fill="#FFFFFF" fill-opacity="0.12" stroke="#FFFFFF" stroke-opacity="0.16" stroke-width="2"/>
  <rect x="972" y="196" width="386" height="40" rx="20" fill="#FFFFFF" fill-opacity="0.82"/>
  <rect x="972" y="268" width="280" height="196" rx="28" fill="#0EA5E9"/>
  <rect x="972" y="496" width="386" height="28" rx="14" fill="#E2E8F0"/>
  <rect x="972" y="546" width="334" height="28" rx="14" fill="#E2E8F0"/>
  <rect x="972" y="620" width="152" height="48" rx="24" fill="#22C55E"/>
  <text x="144" y="120" fill="#E2E8F0" font-family="Arial, sans-serif" font-size="34" font-weight="700">Preview em imagem</text>
  <text x="144" y="658" fill="#F8FAFC" font-family="Arial, sans-serif" font-size="52" font-weight="700">Capa / Hero</text>
  <defs>
    <linearGradient id="bg" x1="56" y1="56" x2="1544" y2="844" gradientUnits="userSpaceOnUse">
      <stop stop-color="#1D4ED8"/>
      <stop offset="1" stop-color="#0F766E"/>
    </linearGradient>
  </defs>
</svg>
