<svg width="1600" height="900" viewBox="0 0 1600 900" fill="none" xmlns="http://www.w3.org/2000/svg">
  <rect width="1600" height="900" rx="48" fill="#FFF7ED"/>
  <rect x="56" y="56" width="1488" height="788" rx="40" fill="url(#menuBg)"/>
  <circle cx="1320" cy="182" r="144" fill="#F97316" fill-opacity="0.16"/>
  <circle cx="240" cy="742" r="200" fill="#FB923C" fill-opacity="0.12"/>
  <rect x="128" y="132" width="242" height="26" rx="13" fill="#9A3412" fill-opacity="0.16"/>
  <rect x="128" y="188" width="486" height="96" rx="24" fill="#431407"/>
  <rect x="128" y="318" width="400" height="24" rx="12" fill="#C2410C" fill-opacity="0.28"/>
  <g>
    <rect x="128" y="408" width="462" height="108" rx="30" fill="#FFEDD5"/>
    <circle cx="208" cy="462" r="30" fill="#FB923C"/>
    <rect x="256" y="440" width="184" height="20" rx="10" fill="#7C2D12"/>
    <rect x="256" y="474" width="136" height="16" rx="8" fill="#C2410C" fill-opacity="0.44"/>
    <rect x="474" y="438" width="82" height="26" rx="13" fill="#EA580C"/>
    <rect x="474" y="474" width="62" height="16" rx="8" fill="#FDBA74"/>
  </g>
  <g>
    <rect x="128" y="544" width="462" height="108" rx="30" fill="#FFF7ED"/>
    <circle cx="208" cy="598" r="30" fill="#F59E0B"/>
    <rect x="256" y="576" width="210" height="20" rx="10" fill="#7C2D12"/>
    <rect x="256" y="610" width="164" height="16" rx="8" fill="#C2410C" fill-opacity="0.44"/>
    <rect x="474" y="574" width="82" height="26" rx="13" fill="#EA580C"/>
    <rect x="474" y="610" width="62" height="16" rx="8" fill="#FDBA74"/>
  </g>
  <rect x="846" y="132" width="582" height="646" rx="38" fill="#FFFFFF" fill-opacity="0.72" stroke="#F97316" stroke-opacity="0.2" stroke-width="2"/>
  <rect x="892" y="180" width="214" height="24" rx="12" fill="#FDBA74"/>
  <rect x="892" y="236" width="490" height="124" rx="28" fill="#FFF7ED"/>
  <rect x="924" y="272" width="186" height="20" rx="10" fill="#7C2D12"/>
  <rect x="924" y="306" width="244" height="16" rx="8" fill="#C2410C" fill-opacity="0.4"/>
  <rect x="1278" y="268" width="74" height="24" rx="12" fill="#EA580C"/>
  <rect x="892" y="390" width="490" height="124" rx="28" fill="#FFF7ED"/>
  <rect x="924" y="426" width="168" height="20" rx="10" fill="#7C2D12"/>
  <rect x="924" y="460" width="228" height="16" rx="8" fill="#C2410C" fill-opacity="0.4"/>
  <rect x="1278" y="422" width="74" height="24" rx="12" fill="#EA580C"/>
  <rect x="892" y="548" width="490" height="176" rx="28" fill="#7C2D12"/>
  <rect x="924" y="584" width="232" height="20" rx="10" fill="#FFEDD5"/>
  <rect x="924" y="620" width="200" height="16" rx="8" fill="#FED7AA" fill-opacity="0.72"/>
  <rect x="924" y="660" width="146" height="44" rx="22" fill="#F97316"/>
  <circle cx="1286" cy="634" r="64" fill="#FB923C"/>
  <path d="M1264 634C1264 622.954 1272.95 614 1284 614H1288C1299.05 614 1308 622.954 1308 634C1308 645.046 1299.05 654 1288 654H1284C1272.95 654 1264 645.046 1264 634Z" fill="#FFF7ED"/>
  <path d="M1286 592V676" stroke="#7C2D12" stroke-width="10" stroke-linecap="round"/>
  <path d="M1248 634H1324" stroke="#7C2D12" stroke-width="10" stroke-linecap="round"/>
  <text x="128" y="786" fill="#7C2D12" font-family="Arial, sans-serif" font-size="52" font-weight="700">Cardapio com itens e destaque visual</text>
  <defs>
    <linearGradient id="menuBg" x1="56" y1="56" x2="1544" y2="844" gradientUnits="userSpaceOnUse">
      <stop stop-color="#FFFBEB"/>
      <stop offset="1" stop-color="#FED7AA"/>
    </linearGradient>
  </defs>
</svg>
