<svg width="1600" height="900" viewBox="0 0 1600 900" fill="none" xmlns="http://www.w3.org/2000/svg">
  <rect width="1600" height="900" rx="48" fill="#EEF2FF"/>
  <rect x="56" y="56" width="1488" height="788" rx="40" fill="url(#depoBg)"/>
  <circle cx="1306" cy="180" r="150" fill="#818CF8" fill-opacity="0.18"/>
  <circle cx="274" cy="732" r="196" fill="#F472B6" fill-opacity="0.14"/>
  <rect x="128" y="130" width="230" height="26" rx="13" fill="#4338CA" fill-opacity="0.16"/>
  <rect x="128" y="186" width="520" height="96" rx="24" fill="#1F2937"/>
  <rect x="128" y="340" width="418" height="290" rx="36" fill="#312E81"/>
  <path d="M194 432H264V514H194V432Z" fill="#C4B5FD"/>
  <path d="M304 432H374V514H304V432Z" fill="#C4B5FD"/>
  <rect x="186" y="556" width="286" height="18" rx="9" fill="#DDD6FE"/>
  <rect x="186" y="590" width="238" height="18" rx="9" fill="#C4B5FD"/>
  <circle cx="1178" cy="498" r="198" fill="#FFFFFF" fill-opacity="0.88"/>
  <circle cx="1178" cy="432" r="68" fill="#A78BFA"/>
  <g fill="#F59E0B">
    <circle cx="1082" cy="612" r="12"/>
    <circle cx="1118" cy="612" r="12"/>
    <circle cx="1154" cy="612" r="12"/>
    <circle cx="1190" cy="612" r="12"/>
    <circle cx="1226" cy="612" r="12"/>
  </g>
  <rect x="882" y="314" width="280" height="150" rx="28" fill="#FFFFFF"/>
  <rect x="904" y="342" width="128" height="14" rx="7" fill="#A78BFA"/>
  <rect x="904" y="378" width="188" height="14" rx="7" fill="#C4B5FD"/>
  <rect x="904" y="408" width="154" height="14" rx="7" fill="#C4B5FD"/>
  <rect x="1014" y="658" width="326" height="26" rx="13" fill="#4338CA" fill-opacity="0.2"/>
  <text x="128" y="786" fill="#312E81" font-family="Arial, sans-serif" font-size="52" font-weight="700">Depoimentos com prova social em destaque</text>
  <defs>
    <linearGradient id="depoBg" x1="56" y1="56" x2="1544" y2="844" gradientUnits="userSpaceOnUse">
      <stop stop-color="#F8FAFC"/>
      <stop offset="1" stop-color="#E0E7FF"/>
    </linearGradient>
  </defs>
</svg>
