<svg width="1600" height="900" viewBox="0 0 1600 900" fill="none" xmlns="http://www.w3.org/2000/svg">
  <rect width="1600" height="900" rx="48" fill="#F8FAFC"/>
  <rect x="72" y="72" width="1456" height="756" rx="40" fill="#0F172A"/>
  <rect x="144" y="152" width="294" height="28" rx="14" fill="#38BDF8" fill-opacity="0.35"/>
  <rect x="144" y="212" width="588" height="96" rx="24" fill="#F8FAFC"/>
  <rect x="144" y="352" width="416" height="24" rx="12" fill="#94A3B8"/>
  <g>
    <rect x="144" y="430" width="400" height="232" rx="32" fill="#FFFFFF"/>
    <rect x="600" y="430" width="400" height="232" rx="32" fill="#FFFFFF"/>
    <rect x="1056" y="430" width="328" height="232" rx="32" fill="#1E293B"/>
    <circle cx="216" cy="500" r="34" fill="#38BDF8"/>
    <circle cx="672" cy="500" r="34" fill="#22C55E"/>
    <circle cx="1128" cy="500" r="34" fill="#F97316"/>
    <g fill="#CBD5E1">
      <rect x="270" y="480" width="210" height="20" rx="10"/>
      <rect x="270" y="520" width="180" height="20" rx="10"/>
      <rect x="190" y="572" width="304" height="18" rx="9"/>
      <rect x="190" y="608" width="266" height="18" rx="9"/>
      <rect x="726" y="480" width="210" height="20" rx="10"/>
      <rect x="726" y="520" width="180" height="20" rx="10"/>
      <rect x="646" y="572" width="304" height="18" rx="9"/>
      <rect x="646" y="608" width="266" height="18" rx="9"/>
    </g>
    <g fill="#E2E8F0">
      <rect x="1182" y="482" width="140" height="18" rx="9"/>
      <rect x="1182" y="518" width="118" height="18" rx="9"/>
      <rect x="1102" y="572" width="208" height="18" rx="9"/>
      <rect x="1102" y="608" width="192" height="18" rx="9"/>
    </g>
  </g>
  <text x="144" y="760" fill="#F8FAFC" font-family="Arial, sans-serif" font-size="52" font-weight="700">Depoimentos e prova social</text>
</svg>
