<svg width="1600" height="900" viewBox="0 0 1600 900" fill="none" xmlns="http://www.w3.org/2000/svg">
  <rect width="1600" height="900" rx="48" fill="#F7FEE7"/>
  <rect x="56" y="56" width="1488" height="788" rx="40" fill="url(#faqBg)"/>
  <circle cx="1322" cy="184" r="150" fill="#84CC16" fill-opacity="0.18"/>
  <circle cx="258" cy="738" r="202" fill="#4ADE80" fill-opacity="0.12"/>
  <rect x="128" y="130" width="218" height="26" rx="13" fill="#4D7C0F" fill-opacity="0.16"/>
  <rect x="128" y="186" width="482" height="96" rx="24" fill="#1F2937"/>
  <g>
    <rect x="128" y="354" width="612" height="92" rx="28" fill="#FFFFFF"/>
    <rect x="128" y="470" width="612" height="92" rx="28" fill="#ECFCCB"/>
    <rect x="128" y="586" width="612" height="92" rx="28" fill="#FFFFFF"/>
  </g>
  <g fill="#65A30D">
    <rect x="172" y="392" width="282" height="18" rx="9"/>
    <rect x="172" y="508" width="264" height="18" rx="9"/>
    <rect x="172" y="624" width="302" height="18" rx="9"/>
  </g>
  <g fill="#84CC16">
    <circle cx="674" cy="400" r="22"/>
    <circle cx="674" cy="516" r="22"/>
    <circle cx="674" cy="632" r="22"/>
  </g>
  <rect x="872" y="184" width="478" height="520" rx="38" fill="#365314"/>
  <circle cx="1112" cy="346" r="104" fill="#A3E635"/>
  <path d="M1088 332C1088 318.745 1098.75 308 1112 308C1125.25 308 1136 318.745 1136 332C1136 344.351 1127.23 354.654 1115.6 357.027L1114 390H1110L1108.4 357.027C1096.77 354.654 1088 344.351 1088 332Z" fill="#365314"/>
  <circle cx="1112" cy="424" r="10" fill="#365314"/>
  <rect x="972" y="524" width="280" height="20" rx="10" fill="#D9F99D"/>
  <rect x="972" y="560" width="230" height="16" rx="8" fill="#BEF264"/>
  <text x="128" y="786" fill="#3F6212" font-family="Arial, sans-serif" font-size="52" font-weight="700">FAQ com acordions e leitura clara</text>
  <defs>
    <linearGradient id="faqBg" x1="56" y1="56" x2="1544" y2="844" gradientUnits="userSpaceOnUse">
      <stop stop-color="#F8FAFC"/>
      <stop offset="1" stop-color="#ECFCCB"/>
    </linearGradient>
  </defs>
</svg>
