<svg width="1600" height="900" viewBox="0 0 1600 900" fill="none" xmlns="http://www.w3.org/2000/svg">
  <rect width="1600" height="900" rx="48" fill="#EEF2FF"/>
  <rect x="72" y="72" width="1456" height="756" rx="40" fill="#FFFFFF"/>
  <rect x="148" y="154" width="230" height="28" rx="14" fill="#6366F1" fill-opacity="0.18"/>
  <rect x="148" y="210" width="524" height="96" rx="24" fill="#111827"/>
  <g>
    <rect x="148" y="378" width="1304" height="98" rx="28" fill="#EEF2FF"/>
    <rect x="148" y="506" width="1304" height="98" rx="28" fill="#EEF2FF"/>
    <rect x="148" y="634" width="1304" height="98" rx="28" fill="#EEF2FF"/>
  </g>
  <g fill="#111827">
    <rect x="196" y="416" width="418" height="18" rx="9"/>
    <rect x="196" y="544" width="374" height="18" rx="9"/>
    <rect x="196" y="672" width="452" height="18" rx="9"/>
  </g>
  <g fill="#A5B4FC">
    <circle cx="1358" cy="426" r="18"/>
    <circle cx="1358" cy="554" r="18"/>
    <circle cx="1358" cy="682" r="18"/>
  </g>
  <text x="148" y="792" fill="#312E81" font-family="Arial, sans-serif" font-size="52" font-weight="700">Perguntas frequentes</text>
</svg>
