<svg width="1600" height="900" viewBox="0 0 1600 900" fill="none" xmlns="http://www.w3.org/2000/svg">
  <rect width="1600" height="900" rx="48" fill="#F0FDF4"/>
  <rect x="56" y="56" width="1488" height="788" rx="40" fill="url(#formBg)"/>
  <circle cx="1314" cy="188" r="150" fill="#22C55E" fill-opacity="0.16"/>
  <circle cx="252" cy="738" r="198" fill="#86EFAC" fill-opacity="0.14"/>
  <rect x="128" y="132" width="238" height="26" rx="13" fill="#15803D" fill-opacity="0.16"/>
  <rect x="128" y="188" width="520" height="96" rx="24" fill="#1F2937"/>
  <rect x="128" y="364" width="610" height="352" rx="40" fill="#FFFFFF" stroke="#DCFCE7" stroke-width="2"/>
  <g fill="#E2E8F0">
    <rect x="180" y="432" width="506" height="54" rx="18"/>
    <rect x="180" y="516" width="506" height="54" rx="18"/>
    <rect x="180" y="600" width="506" height="54" rx="18"/>
  </g>
  <rect x="180" y="686" width="214" height="56" rx="28" fill="#22C55E"/>
  <rect x="824" y="364" width="572" height="352" rx="40" fill="#14532D"/>
  <rect x="874" y="430" width="206" height="22" rx="11" fill="#BBF7D0"/>
  <rect x="874" y="482" width="364" height="18" rx="9" fill="#DCFCE7" fill-opacity="0.84"/>
  <rect x="874" y="516" width="322" height="18" rx="9" fill="#DCFCE7" fill-opacity="0.84"/>
  <rect x="874" y="588" width="228" height="54" rx="27" fill="#4ADE80"/>
  <circle cx="1240" cy="554" r="64" fill="#22C55E"/>
  <path d="M1216 556L1236 576L1266 532" stroke="#ECFDF5" stroke-width="16" stroke-linecap="round" stroke-linejoin="round"/>
  <text x="128" y="786" fill="#14532D" font-family="Arial, sans-serif" font-size="52" font-weight="700">Formulario com destaque para conversao</text>
  <defs>
    <linearGradient id="formBg" x1="56" y1="56" x2="1544" y2="844" gradientUnits="userSpaceOnUse">
      <stop stop-color="#FFFFFF"/>
      <stop offset="1" stop-color="#DCFCE7"/>
    </linearGradient>
  </defs>
</svg>
