<svg width="1600" height="900" viewBox="0 0 1600 900" fill="none" xmlns="http://www.w3.org/2000/svg">
  <rect width="1600" height="900" rx="48" fill="#FFF7ED"/>
  <rect x="56" y="56" width="1488" height="788" rx="40" fill="url(#galleryBg)"/>
  <circle cx="1320" cy="186" r="154" fill="#FB7185" fill-opacity="0.16"/>
  <circle cx="252" cy="734" r="196" fill="#FDBA74" fill-opacity="0.14"/>
  <rect x="128" y="132" width="226" height="26" rx="13" fill="#BE123C" fill-opacity="0.16"/>
  <rect x="128" y="188" width="540" height="96" rx="24" fill="#1F2937"/>
  <g>
    <rect x="128" y="372" width="260" height="178" rx="28" fill="#FECDD3"/>
    <rect x="410" y="372" width="336" height="286" rx="32" fill="#FED7AA"/>
    <rect x="768" y="372" width="252" height="178" rx="28" fill="#FBCFE8"/>
    <rect x="1042" y="372" width="330" height="286" rx="32" fill="#FDBA74"/>
    <rect x="128" y="574" width="260" height="144" rx="28" fill="#FDBA74"/>
    <rect x="768" y="574" width="252" height="144" rx="28" fill="#FECDD3"/>
  </g>
  <g fill="#FFFFFF" fill-opacity="0.7">
    <rect x="160" y="404" width="196" height="18" rx="9"/>
    <rect x="442" y="404" width="210" height="18" rx="9"/>
    <rect x="800" y="404" width="188" height="18" rx="9"/>
    <rect x="1074" y="404" width="206" height="18" rx="9"/>
  </g>
  <text x="128" y="786" fill="#9F1239" font-family="Arial, sans-serif" font-size="52" font-weight="700">Galeria com mosaico de imagens</text>
  <defs>
    <linearGradient id="galleryBg" x1="56" y1="56" x2="1544" y2="844" gradientUnits="userSpaceOnUse">
      <stop stop-color="#FFFFFF"/>
      <stop offset="1" stop-color="#FFEDD5"/>
    </linearGradient>
  </defs>
</svg>
