<svg width="1600" height="900" viewBox="0 0 1600 900" fill="none" xmlns="http://www.w3.org/2000/svg">
  <rect width="1600" height="900" rx="48" fill="#ECFEFF"/>
  <rect x="56" y="56" width="1488" height="788" rx="40" fill="url(#mapBg)"/>
  <circle cx="1318" cy="184" r="148" fill="#06B6D4" fill-opacity="0.16"/>
  <circle cx="252" cy="738" r="198" fill="#34D399" fill-opacity="0.12"/>
  <rect x="128" y="132" width="212" height="26" rx="13" fill="#0F766E" fill-opacity="0.16"/>
  <rect x="128" y="188" width="510" height="96" rx="24" fill="#1F2937"/>
  <rect x="128" y="360" width="1268" height="356" rx="40" fill="#FFFFFF" fill-opacity="0.88"/>
  <path d="M216 430H1310" stroke="#BAE6FD" stroke-width="18" stroke-linecap="round"/>
  <path d="M264 520H1358" stroke="#A7F3D0" stroke-width="18" stroke-linecap="round"/>
  <path d="M184 610H1278" stroke="#BFDBFE" stroke-width="18" stroke-linecap="round"/>
  <path d="M398 404V690" stroke="#A7F3D0" stroke-width="18" stroke-linecap="round"/>
  <path d="M732 388V704" stroke="#BFDBFE" stroke-width="18" stroke-linecap="round"/>
  <path d="M1044 404V690" stroke="#A7F3D0" stroke-width="18" stroke-linecap="round"/>
  <circle cx="858" cy="534" r="94" fill="#0EA5E9"/>
  <path d="M858 472C884.51 472 906 493.49 906 520C906 554 858 612 858 612C858 612 810 554 810 520C810 493.49 831.49 472 858 472Z" fill="#082F49"/>
  <circle cx="858" cy="520" r="18" fill="#E0F2FE"/>
  <rect x="1128" y="448" width="188" height="22" rx="11" fill="#0F766E" fill-opacity="0.22"/>
  <rect x="1128" y="488" width="220" height="18" rx="9" fill="#14B8A6" fill-opacity="0.34"/>
  <text x="128" y="786" fill="#134E4A" font-family="Arial, sans-serif" font-size="52" font-weight="700">Mapa com localizacao em destaque</text>
  <defs>
    <linearGradient id="mapBg" x1="56" y1="56" x2="1544" y2="844" gradientUnits="userSpaceOnUse">
      <stop stop-color="#F8FAFC"/>
      <stop offset="1" stop-color="#CCFBF1"/>
    </linearGradient>
  </defs>
</svg>
