<svg width="1600" height="900" viewBox="0 0 1600 900" fill="none" xmlns="http://www.w3.org/2000/svg">
  <rect width="1600" height="900" rx="48" fill="#EFF6FF"/>
  <rect x="72" y="72" width="1456" height="756" rx="40" fill="#FFFFFF"/>
  <rect x="148" y="154" width="202" height="28" rx="14" fill="#2563EB" fill-opacity="0.16"/>
  <rect x="148" y="210" width="442" height="96" rx="24" fill="#111827"/>
  <rect x="148" y="376" width="1304" height="372" rx="40" fill="#DBEAFE"/>
  <path d="M218 442H1386" stroke="#93C5FD" stroke-width="10" stroke-linecap="round"/>
  <path d="M218 520H1386" stroke="#93C5FD" stroke-width="10" stroke-linecap="round"/>
  <path d="M218 598H1386" stroke="#93C5FD" stroke-width="10" stroke-linecap="round"/>
  <path d="M320 404V720" stroke="#93C5FD" stroke-width="10" stroke-linecap="round"/>
  <path d="M566 404V720" stroke="#93C5FD" stroke-width="10" stroke-linecap="round"/>
  <path d="M820 404V720" stroke="#93C5FD" stroke-width="10" stroke-linecap="round"/>
  <path d="M1080 404V720" stroke="#93C5FD" stroke-width="10" stroke-linecap="round"/>
  <path d="M1316 404V720" stroke="#93C5FD" stroke-width="10" stroke-linecap="round"/>
  <path d="M812 456C773 456 742 487 742 526C742 590 812 654 812 654C812 654 882 590 882 526C882 487 851 456 812 456Z" fill="#2563EB"/>
  <circle cx="812" cy="526" r="28" fill="#FFFFFF"/>
  <text x="148" y="792" fill="#1D4ED8" font-family="Arial, sans-serif" font-size="52" font-weight="700">Mapa e localizacao</text>
</svg>
