<svg width="1600" height="900" viewBox="0 0 1600 900" fill="none" xmlns="http://www.w3.org/2000/svg">
  <rect width="1600" height="900" rx="48" fill="#ECFEFF"/>
  <rect x="56" y="56" width="1488" height="788" rx="40" fill="url(#servicesBg)"/>
  <circle cx="1322" cy="184" r="154" fill="#06B6D4" fill-opacity="0.16"/>
  <circle cx="252" cy="736" r="198" fill="#67E8F9" fill-opacity="0.14"/>
  <rect x="128" y="132" width="240" height="26" rx="13" fill="#155E75" fill-opacity="0.18"/>
  <rect x="128" y="188" width="548" height="96" rx="24" fill="#1F2937"/>
  <rect x="128" y="328" width="426" height="24" rx="12" fill="#0F766E" fill-opacity="0.28"/>
  <g fill="#FFFFFF">
    <rect x="128" y="410" width="388" height="276" rx="32"/>
    <rect x="558" y="410" width="388" height="276" rx="32"/>
    <rect x="988" y="410" width="388" height="276" rx="32"/>
  </g>
  <g fill="#06B6D4">
    <rect x="170" y="454" width="78" height="78" rx="20"/>
    <rect x="600" y="454" width="78" height="78" rx="20"/>
    <rect x="1030" y="454" width="78" height="78" rx="20"/>
  </g>
  <g fill="#94A3B8">
    <rect x="170" y="570" width="226" height="20" rx="10"/>
    <rect x="170" y="606" width="258" height="18" rx="9"/>
    <rect x="600" y="570" width="226" height="20" rx="10"/>
    <rect x="600" y="606" width="258" height="18" rx="9"/>
    <rect x="1030" y="570" width="226" height="20" rx="10"/>
    <rect x="1030" y="606" width="258" height="18" rx="9"/>
  </g>
  <text x="128" y="786" fill="#164E63" font-family="Arial, sans-serif" font-size="52" font-weight="700">Servicos organizados em cards</text>
  <defs>
    <linearGradient id="servicesBg" x1="56" y1="56" x2="1544" y2="844" gradientUnits="userSpaceOnUse">
      <stop stop-color="#F8FAFC"/>
      <stop offset="1" stop-color="#CFFAFE"/>
    </linearGradient>
  </defs>
</svg>
