<svg width="1600" height="900" viewBox="0 0 1600 900" fill="none" xmlns="http://www.w3.org/2000/svg">
  <rect width="1600" height="900" rx="48" fill="#FFF7ED"/>
  <rect x="56" y="56" width="1488" height="788" rx="40" fill="url(#aboutBg)"/>
  <circle cx="310" cy="388" r="174" fill="#FDBA74"/>
  <circle cx="310" cy="322" r="80" fill="#FB923C"/>
  <circle cx="1316" cy="184" r="136" fill="#FED7AA" fill-opacity="0.56"/>
  <rect x="456" y="136" width="242" height="26" rx="13" fill="#EA580C" fill-opacity="0.18"/>
  <rect x="456" y="192" width="592" height="108" rx="24" fill="#1F2937"/>
  <rect x="456" y="338" width="686" height="26" rx="13" fill="#D6D3D1"/>
  <rect x="456" y="384" width="632" height="26" rx="13" fill="#D6D3D1"/>
  <rect x="456" y="430" width="666" height="26" rx="13" fill="#D6D3D1"/>
  <rect x="456" y="504" width="250" height="58" rx="29" fill="#F97316"/>
  <rect x="1092" y="180" width="292" height="482" rx="34" fill="#FFF7ED" stroke="#FED7AA" stroke-width="2"/>
  <rect x="1130" y="226" width="216" height="18" rx="9" fill="#C2410C" fill-opacity="0.18"/>
  <rect x="1130" y="274" width="216" height="182" rx="28" fill="#FDBA74"/>
  <rect x="1130" y="490" width="204" height="20" rx="10" fill="#E7E5E4"/>
  <rect x="1130" y="526" width="184" height="20" rx="10" fill="#E7E5E4"/>
  <rect x="1130" y="584" width="136" height="44" rx="22" fill="#FB923C"/>
  <text x="136" y="150" fill="#9A3412" font-family="Arial, sans-serif" font-size="34" font-weight="700">Preview em imagem</text>
  <text x="136" y="786" fill="#111827" font-family="Arial, sans-serif" font-size="52" font-weight="700">Sobre com historia e credibilidade</text>
  <defs>
    <linearGradient id="aboutBg" x1="56" y1="56" x2="1544" y2="844" gradientUnits="userSpaceOnUse">
      <stop stop-color="#FFFFFF"/>
      <stop offset="1" stop-color="#FFEDD5"/>
    </linearGradient>
  </defs>
</svg>
