<svg width="1600" height="900" viewBox="0 0 1600 900" fill="none" xmlns="http://www.w3.org/2000/svg">
  <rect width="1600" height="900" rx="48" fill="#FFF7ED"/>
  <rect x="56" y="56" width="1488" height="788" rx="40" fill="url(#videoBg)"/>
  <circle cx="1318" cy="188" r="150" fill="#FB7185" fill-opacity="0.18"/>
  <circle cx="252" cy="738" r="198" fill="#FDBA74" fill-opacity="0.14"/>
  <rect x="128" y="132" width="212" height="26" rx="13" fill="#DC2626" fill-opacity="0.16"/>
  <rect x="128" y="188" width="514" height="96" rx="24" fill="#1F2937"/>
  <rect x="128" y="358" width="804" height="366" rx="40" fill="#111827"/>
  <rect x="166" y="398" width="728" height="236" rx="26" fill="#EF4444"/>
  <circle cx="530" cy="516" r="86" fill="#FFFFFF" fill-opacity="0.9"/>
  <path d="M506 470L590 516L506 562V470Z" fill="#EF4444"/>
  <rect x="166" y="660" width="180" height="20" rx="10" fill="#FCA5A5"/>
  <rect x="364" y="660" width="120" height="20" rx="10" fill="#FCA5A5" fill-opacity="0.72"/>
  <rect x="1014" y="358" width="382" height="366" rx="40" fill="#FFFFFF" fill-opacity="0.84"/>
  <rect x="1056" y="414" width="216" height="20" rx="10" fill="#F97316" fill-opacity="0.3"/>
  <rect x="1056" y="456" width="258" height="18" rx="9" fill="#FDBA74"/>
  <rect x="1056" y="492" width="222" height="18" rx="9" fill="#FDBA74"/>
  <rect x="1056" y="566" width="180" height="52" rx="26" fill="#EF4444"/>
  <text x="128" y="786" fill="#9A3412" font-family="Arial, sans-serif" font-size="52" font-weight="700">Video com destaque para apresentacao</text>
  <defs>
    <linearGradient id="videoBg" x1="56" y1="56" x2="1544" y2="844" gradientUnits="userSpaceOnUse">
      <stop stop-color="#FFFFFF"/>
      <stop offset="1" stop-color="#FFEDD5"/>
    </linearGradient>
  </defs>
</svg>
